<?xml version="1.0" encoding="UTF-8"?>
<svg id="Ebene_1" xmlns="http://www.w3.org/2000/svg" viewBox="0 0 500 500">
  <defs>
    <style>
      .cls-1 {
        fill: #141414;
      }

      .cls-2 {
        fill: aqua;
      }
    </style>
  </defs>
  <path class="cls-1" d="M226.69,247.77c-2.03,2.23-2.03,5.66,0,7.89l20.07,22.02c.25.27-.05.32.83.56v135.86c0,6.45-5.19,11.67-11.6,11.67h-25.03c-6.41,0-11.6-5.22-11.6-11.67v-88.46l-52.23,52.54c-2.53,2.54-6.62,2.54-9.14,0l-25.02-25.17c-2.53-2.54-2.53-6.66,0-9.2l69.44-69.85h-75.5c-.64,0-1.17-.52-1.17-1.17v-46.18c0-.64.52-1.17,1.17-1.17h75.51l-71.23-71.66c-2.54-2.56-2.54-6.7,0-9.26l24.3-24.44c2.54-2.56,6.66-2.56,9.2,0l54.68,55.01v-89.41c0-6.45,5.19-11.67,11.6-11.67h25.03c6.41,0,11.6,5.22,11.6,11.67v139.52c-.3.12-.58.29-.83.56l-20.07,22.02Z"/>
  <g>
    <path class="cls-2" d="M307.22,79.8v30.37c0,1.57-1.05,2.96-2.56,3.36-8.08,2.14-11.93,9.4-11.93,20.22,0,7.08,2.76,15.7,10.18,15.7s9.32-8.28,13.12-23.47c5.18-20.71,12.25-45.73,38.48-45.73,28.3,0,39,23.12,39,50.91,0,24.27-9.66,46.67-33.72,49.28-2.07.23-3.89-1.38-3.89-3.46v-29.27c0-1.51.97-2.84,2.4-3.31,5.34-1.75,8.64-6.53,8.64-15.14,0-7.94-3.62-13.46-8.63-13.46-7.25,0-8.28,10.53-12.77,28.99-5,20.71-13.12,41.42-39.35,41.42s-41.24-23.99-41.24-53.15c0-30.64,12.58-54.21,38.49-56.73,2.03-.2,3.79,1.43,3.79,3.47Z"/>
    <path class="cls-2" d="M391.26,199.52v89.15c0,1.92-1.56,3.49-3.49,3.49h-22.37c-1.92,0-3.49-1.56-3.49-3.49v-53.08c0-1.92-1.56-3.49-3.49-3.49h-9.77c-1.92,0-3.49,1.56-3.49,3.49v43.25c0,1.92-1.56,3.49-3.49,3.49h-20.12c-1.92,0-3.49-1.56-3.49-3.49v-43.25c0-1.92-1.56-3.49-3.49-3.49h-12.36c-1.92,0-3.49,1.56-3.49,3.49v54.81c0,1.92-1.56,3.49-3.49,3.49h-23.92c-1.92,0-3.49-1.56-3.49-3.49v-90.87c0-1.92,1.56-3.49,3.49-3.49h116.41c1.92,0,3.49,1.56,3.49,3.49Z"/>
    <path class="cls-2" d="M329.13,299.41c36.93,0,64.37,24.16,64.37,62.47s-27.44,62.81-64.37,62.81-64.19-24.5-64.19-62.81,27.27-62.47,64.19-62.47ZM329.13,388.1c20.19,0,35.55-8.8,35.55-26.06s-15.36-26.06-35.55-26.06-35.38,8.8-35.38,26.06,15.19,26.06,35.38,26.06Z"/>
  </g>
</svg>