<?xml version="1.0" encoding="UTF-8"?>
<svg id="Ebene_1" xmlns="http://www.w3.org/2000/svg" viewBox="0 0 500 500">
  <g>
    <path d="M207.53,262.18l18.42,18.53c1.86,1.87,1.86,4.9,0,6.77l-56.64,56.98c-1.86,1.87-4.87,1.87-6.73,0l-18.42-18.53c-1.86-1.87-1.86-4.9,0-6.77l56.64-56.98c1.86-1.87,4.87-1.87,6.73,0Z"/>
    <rect x="156.6" y="214.24" width="35.72" height="71.25" rx="2.07" ry="2.07" transform="translate(-75.39 424.32) rotate(-90)"/>
    <path d="M234.72,228.85l-17.89,18c-1.87,1.88-4.9,1.88-6.78,0l-67.2-67.61c-1.87-1.88-1.87-4.93,0-6.82l17.89-18c1.87-1.88,4.9-1.88,6.78,0l67.2,67.61c1.87,1.88,1.87,4.93,0,6.82Z"/>
    <path d="M242.67,270.47l-14.77-16.21c-1.5-1.64-1.5-4.17,0-5.81l14.77-16.21c.18-.2.39-.32.61-.41v-102.72c0-4.75-3.82-8.59-8.54-8.59h-18.43c-4.72,0-8.54,3.85-8.54,8.59v241.81c0,4.75,3.82,8.59,8.54,8.59h18.43c4.72,0,8.54-3.85,8.54-8.59v-100.03c-.64-.18-.43-.21-.61-.41Z"/>
  </g>
  <path d="M260.1,123.14h94.44c2.11,0,3.82,1.72,3.82,3.84v21.99c0,2.12-1.71,3.84-3.82,3.84h-26.34c-2.11,0-3.82,1.72-3.82,3.84v81.84c0,2.12-1.71,3.84-3.82,3.84h-27c-2.11,0-3.82-1.72-3.82-3.84v-81.84c0-2.12-1.71-3.84-3.82-3.84h-25.84c-2.11,0-3.82-1.72-3.82-3.84v-21.99c0-2.12,1.71-3.84,3.82-3.84Z"/>
  <path d="M262.95,260.23h94.33c2.14,0,3.88,1.75,3.88,3.9v21.88c0,2.15-1.74,3.9-3.88,3.9h-26.22c-2.14,0-3.88,1.75-3.88,3.9v81.72c0,2.15-1.74,3.9-3.88,3.9h-26.88c-2.14,0-3.88-1.75-3.88-3.9v-81.72c0-2.15-1.74-3.9-3.88-3.9h-25.72c-2.14,0-3.88-1.75-3.88-3.9v-21.88c0-2.15,1.74-3.9,3.88-3.9Z"/>
</svg>